<?xml version="1.0" encoding="UTF-8" standalone="no"?>
<svg width="30px" height="36px" viewBox="0 0 30 36" version="1.1" xmlns="http://www.w3.org/2000/svg" xmlns:xlink="http://www.w3.org/1999/xlink">
    <!-- Generator: Sketch 3.6.1 (26313) - http://www.bohemiancoding.com/sketch -->
    <title>file-pdf</title>
    <desc>Created with Sketch.</desc>
    <defs></defs>
    <g id="Aalto---Style-Guide" stroke="none" stroke-width="1" fill="none" fill-rule="evenodd">
        <g id="Styles" transform="translate(-40.000000, -2270.000000)">
            <g id="Icons" transform="translate(40.000000, 2210.000000)">
                <g id="file-pdf" transform="translate(0.000000, 60.000000)">
                    <path d="M22.5,10.5 C20.8431667,10.5 19.5,9.15683333 19.5,7.5 L19.5,0 L3,0 C1.34316667,0 0,1.34316667 0,3 L0,33 L6,33 L24,33 L30,33 L30,10.5 L22.5,10.5 Z" id="Fill-1" fill="#EBECED"></path>
                    <path d="M19.5,0 L19.5,7.5 C19.5,9.15683333 20.8431667,10.5 22.5,10.5 L30,10.5 L19.5,0 Z" id="Fill-3" fill="#D6D8DA"></path>
                    <path d="M24,33 L6,33 L0,33 C0,34.6568333 1.34316667,36 3,36 L27,36 C28.6568333,36 30,34.6568333 30,33 L24,33 Z" id="Fill-5" fill="#C51F2E"></path>
                    <text id="pdf" font-family="NimbusSan-Bol, Nimbus Sans" font-size="13" font-weight="bold" letter-spacing="-0.390000015" fill="#C51F2E">
                        <tspan x="5.45850002" y="25">pdf</tspan>
                    </text>
                </g>
            </g>
        </g>
    </g>
</svg>