<?xml version="1.0" encoding="UTF-8" standalone="no"?>
<svg width="30px" height="36px" viewBox="0 0 30 36" version="1.1" xmlns="http://www.w3.org/2000/svg" xmlns:xlink="http://www.w3.org/1999/xlink">
    <!-- Generator: Sketch 3.7.2 (28276) - http://www.bohemiancoding.com/sketch -->
    <title>file-image</title>
    <desc>Created with Sketch.</desc>
    <defs></defs>
    <g id="Aalto---Style-Guide" stroke="none" stroke-width="1" fill="none" fill-rule="evenodd">
        <g id="Styles" transform="translate(-465.000000, -3699.000000)">
            <g id="Icons" transform="translate(30.000000, 3319.000000)">
                <g transform="translate(5.000000, 0.000000)" id="file-image">
                    <g transform="translate(430.000000, 380.000000)">
                        <path d="M22.5,10.5 C20.8431667,10.5 19.5,9.15683333 19.5,7.5 L19.5,0 L3,0 C1.34316667,0 0,1.34316667 0,3 L0,33 L6,33 L24,33 L30,33 L30,10.5 L22.5,10.5 Z" id="Fill-1" fill="#EBECED"></path>
                        <path d="M6,24.9914698 C6,26.1007504 6.8926228,27 7.99508929,27 L22.0049107,27 C23.1067681,27 24,26.0980496 24,24.9914698 L24,17.0085302 C24,15.8992496 23.1122704,15 22,15 L20,15 L19.4473525,13.8947051 C19.2002865,13.4005731 18.5469637,13 18.0029699,13 L11.9970301,13 C11.4463856,13 10.7971735,13.4047298 10.551627,13.8947051 L9.99771888,15 L7.99885944,15 C6.89491985,15 6,15.9019504 6,17.0085302 L6,24.9914698 Z M15,23.9987534 C16.6568542,23.9987534 18,22.6556076 18,20.9987534 C18,19.3418991 16.6568542,17.9987534 15,17.9987534 C13.3431458,17.9987534 12,19.3418991 12,20.9987534 C12,22.6556076 13.3431458,23.9987534 15,23.9987534 Z" id="Path-104" fill="#707173"></path>
                        <path d="M19.5,0 L19.5,7.5 C19.5,9.15683333 20.8431667,10.5 22.5,10.5 L30,10.5 L19.5,0 Z" id="Fill-3" fill="#D6D8DA"></path>
                        <path d="M24,33 L6,33 L0,33 C0,34.6568333 1.34316667,36 3,36 L27,36 C28.6568333,36 30,34.6568333 30,33 L24,33 Z" id="Fill-5" fill="#EBECED"></path>
                    </g>
                </g>
            </g>
        </g>
    </g>
</svg>