<?xml version="1.0" encoding="UTF-8" standalone="no"?>
<svg width="30px" height="36px" viewBox="0 0 30 36" version="1.1" xmlns="http://www.w3.org/2000/svg" xmlns:xlink="http://www.w3.org/1999/xlink">
    <!-- Generator: Sketch 3.7.2 (28276) - http://www.bohemiancoding.com/sketch -->
    <title>file-generic</title>
    <desc>Created with Sketch.</desc>
    <defs></defs>
    <g id="Aalto---Style-Guide" stroke="none" stroke-width="1" fill="none" fill-rule="evenodd">
        <g id="Styles" transform="translate(-45.000000, -3699.000000)">
            <g id="Icons" transform="translate(30.000000, 3319.000000)">
                <g transform="translate(5.000000, 0.000000)" id="file-generic">
                    <g transform="translate(10.000000, 380.000000)">
                        <path d="M22.5,10.5 C20.8431667,10.5 19.5,9.15683333 19.5,7.5 L19.5,0 L3,0 C1.34316667,0 0,1.34316667 0,3 L0,33 L6,33 L24,33 L30,33 L30,10.5 L22.5,10.5 Z" id="Fill-1" fill="#EBECED"></path>
                        <path d="M19.5,0 L19.5,7.5 C19.5,9.15683333 20.8431667,10.5 22.5,10.5 L30,10.5 L19.5,0 Z" id="Fill-3" fill="#D6D8DA"></path>
                        <path d="M24,33 L6,33 L0,33 C0,34.6568333 1.34316667,36 3,36 L27,36 C28.6568333,36 30,34.6568333 30,33 L24,33 Z" id="Fill-5" fill="#EBECED"></path>
                        <rect id="Rectangle-84" fill="#707173" x="6" y="7" width="8" height="2"></rect>
                        <rect id="Rectangle-84-Copy-2" fill="#707173" x="6" y="12" width="8" height="2"></rect>
                        <rect id="Rectangle-84-Copy-4" fill="#707173" x="6" y="17" width="18" height="2"></rect>
                        <rect id="Rectangle-84-Copy-5" fill="#707173" x="6" y="22" width="18" height="2"></rect>
                        <rect id="Rectangle-84-Copy-7" fill="#707173" x="6" y="27" width="18" height="2"></rect>
                    </g>
                </g>
            </g>
        </g>
    </g>
</svg>